<svg id="Ebene_1" data-name="Ebene 1" xmlns="http://www.w3.org/2000/svg" xmlns:xlink="http://www.w3.org/1999/xlink" viewBox="0 0 409 114.57"><defs><style>.cls-1{fill:none;}.cls-2{clip-path:url(#clip-path);}.cls-3{fill:#db4a3f;fill-rule:evenodd;}.cls-4{font-size:93.2px;font-family:Nord-Light, Nord;}.cls-4,.cls-5{fill:#073a58;}.cls-5,.cls-7{font-size:60px;}.cls-5{font-family:RobotoSlab-Regular, Roboto Slab;}.cls-6{letter-spacing:-0.01em;}.cls-7{fill:#e83c49;font-family:GearedSlab-Thin, Geared Slab;}.cls-8{letter-spacing:0.02em;}.cls-9{letter-spacing:0em;}</style><clipPath id="clip-path" transform="translate(-119 -249.09)"><rect class="cls-1" x="262.66" y="238.03" width="137" height="137"/></clipPath></defs><title>logo2</title><g class="cls-2"><path class="cls-3" d="M315.47,276.4a3,3,0,1,1,3,3h0a3,3,0,0,1-3-3m24,31.7h0l-.73-6.45h0l-4.61,3.87,1.21.57s.16,5.9-6.87,5.9-7.41-6.22-7.41-6.22V287H329a2.51,2.51,0,0,0,1.66-2.25,2.45,2.45,0,0,0-1.66-2.22l-6.1-.18a7.39,7.39,0,1,0-8.75,0l-6.08.18a2.45,2.45,0,0,0-1.66,2.22,2.51,2.51,0,0,0,1.66,2.25H316v18.76s-.38,6.22-7.42,6.22-6.88-5.9-6.88-5.9l1.21-.57-4.61-3.87-.73,6.45,1.78-1.09a14.11,14.11,0,0,0,8.17,9.29c6.67,2.7,9.67,4.32,11,6.95v0h0v0h0v-.06c1.31-2.63,4.3-4.25,11-6.95a14.09,14.09,0,0,0,8.17-9.28l1.77,1.08Z" transform="translate(-119 -249.09)"/></g><text class="cls-4" transform="translate(157.8 79.22)">{</text><text class="cls-4" transform="translate(206.58 79.53)">}</text><text class="cls-5" transform="translate(0 60.61)">an<tspan class="cls-6" x="71.66" y="0">k</tspan><tspan x="107.55" y="0">er</tspan></text><text class="cls-7" transform="translate(241 62.79)"><tspan class="cls-8">co</tspan><tspan class="cls-9" x="47.34" y="0">d</tspan><tspan x="71.46" y="0">e</tspan></text></svg>